ffmpeg version N-81741-g1212e34 Copyright (c) 2000-2016 the FFmpeg developers
  built with gcc 5.4.0 (GCC)
  configuration: --enable-gpl --enable-version3 --disable-w32threads --enable-dxva2 --enable-libmfx --enable-nvenc --enable-avisynth --enable-bzlib --enable-libebur128 --enable-fontconfig --enable-frei0r --enable-gnutls --enable-iconv --enable-libass --enable-libbluray --enable-libbs2b --enable-libcaca --enable-libfreetype --enable-libgme --enable-libgsm --enable-libilbc --enable-libmodplug --enable-libmp3lame --enable-libopencore-amrnb --enable-libopencore-amrwb --enable-libopenh264 --enable-libopenjpeg --enable-libopus --enable-librtmp --enable-libschroedinger --enable-libsnappy --enable-libsoxr --enable-libspeex --enable-libtheora --enable-libtwolame --enable-libvidstab --enable-libvo-amrwbenc --enable-libvorbis --enable-libvpx --enable-libwavpack --enable-libwebp --enable-libx264 --enable-libx265 --enable-libxavs --enable-libxvid --enable-libzimg --enable-lzma --enable-decklink --enable-zlib
  libavutil      55. 30.100 / 55. 30.100
  libavcodec     57. 58.100 / 57. 58.100
  libavformat    57. 50.100 / 57. 50.100
  libavdevice    57.  0.102 / 57.  0.102
  libavfilter     6. 62.100 /  6. 62.100
  libswscale      4.  1.100 /  4.  1.100
  libswresample   2.  1.100 /  2.  1.100
  libpostproc    54.  0.100 / 54.  0.100
Input #0, image2pipe, from 'pipe:':
  Duration: N/A, bitrate: N/A
    Stream #0:0: Video: ppm, rgb24, 320x240, 20 fps, 20 tbr, 20 tbn, 20 tbc
[libx264 @ 0000000002854a20] using cpu capabilities: MMX2 SSE2Fast SSSE3 SSE4.2 AVX FMA3 AVX2 LZCNT BMI2
[libx264 @ 0000000002854a20] profile High, level 1.3
[libx264 @ 0000000002854a20] 264 - core 148 r2705 3f5ed56 - H.264/MPEG-4 AVC codec - Copyleft 2003-2016 - http://www.videolan.org/x264.html - options: cabac=1 ref=3 deblock=1:0:0 analyse=0x3:0x113 me=hex subme=7 psy=1 psy_rd=1.00:0.00 mixed_ref=1 me_range=16 chroma_me=1 trellis=1 8x8dct=1 cqm=0 deadzone=21,11 fast_pskip=1 chroma_qp_offset=-2 threads=7 lookahead_threads=1 sliced_threads=0 nr=0 decimate=1 interlaced=0 bluray_compat=0 constrained_intra=0 bframes=3 b_pyramid=2 b_adapt=1 b_bias=0 direct=1 weightb=1 open_gop=0 weightp=2 keyint=250 keyint_min=20 scenecut=40 intra_refresh=0 rc_lookahead=40 rc=abr mbtree=1 bitrate=400 ratetol=1.0 qcomp=0.60 qpmin=0 qpmax=69 qpstep=4 ip_ratio=1.40 aq=1:1.00
Output #0, mp4, to '.\mission_records\6f5bf90f-5a8d-4baa-939d-85cbcd08c89a\video.mp4':
  Metadata:
    encoder         : Lavf57.50.100
    Stream #0:0: Video: h264 (libx264) ([33][0][0][0] / 0x0021), yuv420p, 320x240, q=-1--1, 400 kb/s, 20 fps, 10240 tbn, 20 tbc
    Metadata:
      encoder         : Lavc57.58.100 libx264
    Side data:
      cpb: bitrate max/min/avg: 0/0/400000 buffer size: 0 vbv_delay: -1
Stream mapping:
  Stream #0:0 -> #0:0 (ppm (native) -> h264 (libx264))
frame=   30 fps=0.0 q=0.0 size=       0kB time=00:00:00.00 bitrate=N/A speed=   0x    frame=   39 fps= 36 q=0.0 size=       0kB time=00:00:00.00 bitrate=N/A speed=   0x    frame=   48 fps= 29 q=0.0 size=       0kB time=00:00:00.00 bitrate=N/A speed=   0x    frame=   54 fps= 25 q=-1.0 Lsize=     129kB time=00:00:02.55 bitrate= 415.2kbits/s speed=1.16x    
video:128kB audio:0kB subtitle:0kB other streams:0kB global headers:0kB muxing overhead: 1.101503%
[libx264 @ 0000000002854a20] frame I:1     Avg QP:25.73  size:  9293
[libx264 @ 0000000002854a20] frame P:18    Avg QP:29.23  size:  2240
[libx264 @ 0000000002854a20] frame B:35    Avg QP:30.72  size:  2303
[libx264 @ 0000000002854a20] consecutive B-frames:  5.6% 14.8% 27.8% 51.9%
[libx264 @ 0000000002854a20] mb I  I16..4: 10.0% 58.3% 31.7%
[libx264 @ 0000000002854a20] mb P  I16..4:  0.9%  5.6%  2.3%  P16..4: 46.9% 16.1% 10.9%  0.0%  0.0%    skip:17.3%
[libx264 @ 0000000002854a20] mb B  I16..4:  0.4%  4.0%  2.8%  B16..8: 38.1% 12.9%  5.4%  direct: 7.8%  skip:28.6%  L0:49.1% L1:48.1% BI: 2.8%
[libx264 @ 0000000002854a20] final ratefactor: 25.34
[libx264 @ 0000000002854a20] 8x8 transform intra:58.6% inter:59.6%
[libx264 @ 0000000002854a20] coded y,uvDC,uvAC intra: 88.2% 70.6% 55.7% inter: 34.8% 19.6% 5.3%
[libx264 @ 0000000002854a20] i16 v,h,dc,p:  3% 72%  2% 22%
[libx264 @ 0000000002854a20] i8 v,h,dc,ddl,ddr,vr,hd,vl,hu:  7% 12% 23% 10%  9%  6% 12%  8% 12%
[libx264 @ 0000000002854a20] i4 v,h,dc,ddl,ddr,vr,hd,vl,hu: 13% 21% 19%  9%  8%  7%  9%  6%  8%
[libx264 @ 0000000002854a20] i8c dc,h,v,p: 53% 28% 15%  4%
[libx264 @ 0000000002854a20] Weighted P-Frames: Y:27.8% UV:16.7%
[libx264 @ 0000000002854a20] ref P L0: 38.5% 13.8% 20.1% 22.0%  5.7%
[libx264 @ 0000000002854a20] ref B L0: 55.0% 34.2% 10.8%
[libx264 @ 0000000002854a20] ref B L1: 78.4% 21.6%
[libx264 @ 0000000002854a20] kb/s:385.80
